<svg xmlns="http://www.w3.org/2000/svg" viewBox="0 0 64 64">
  <defs>
    <linearGradient id="g" x1="0" x2="1" y1="0" y2="1">
      <stop offset="0" stop-color="#66BB6A" />
      <stop offset="1" stop-color="#2E7D32" />
    </linearGradient>
  </defs>
  <circle cx="32" cy="32" r="30" fill="#E8F4E8" />
  <path
    d="M47 18c-11 0-20 5-24 13-2 4-2 8-1 12-5-2-8-6-8-12 0-10 8-18 19-18 5 0 10 2 14 5z"
    fill="url(#g)"
  />
  <path
    d="M18 39c4 2 8 2 12 0 6-3 9-9 10-17 3 8 2 17-3 23-6 7-16 9-25 6 1-5 3-9 6-12z"
    fill="#2E7D32"
  />
</svg>
